<svg width="340" height="280" viewBox="0 0 340 280" fill="none" xmlns="http://www.w3.org/2000/svg">
<rect width="340" height="280" fill="#F4F4F4"/>
<path d="M85.2695 132.846H82.5547V135.434H80.1426V137.436H82.5547V142.24C82.5547 142.937 82.6458 143.536 82.8281 144.037C83.0104 144.532 83.2708 144.939 83.6094 145.258C83.9414 145.583 84.3418 145.824 84.8105 145.98C85.2858 146.13 85.8132 146.205 86.3926 146.205C86.6921 146.205 86.9948 146.189 87.3008 146.156C87.6133 146.13 87.9128 146.091 88.1992 146.039C88.4857 145.987 88.7559 145.922 89.0098 145.844C89.2637 145.759 89.485 145.661 89.6738 145.551L89.4102 143.686C89.2865 143.718 89.1367 143.751 88.9609 143.783C88.7917 143.816 88.6094 143.845 88.4141 143.871C88.2122 143.904 88.0007 143.93 87.7793 143.949C87.5645 143.969 87.3529 143.979 87.1445 143.979C86.8581 143.979 86.5977 143.946 86.3633 143.881C86.1354 143.816 85.9401 143.705 85.7773 143.549C85.6146 143.399 85.4876 143.197 85.3965 142.943C85.3118 142.683 85.2695 142.361 85.2695 141.977V137.436H89.2148V135.434H85.2695V132.846ZM91.9297 140.619V140.824C91.9297 141.599 92.0404 142.315 92.2617 142.973C92.4831 143.624 92.8086 144.19 93.2383 144.672C93.6615 145.154 94.1823 145.531 94.8008 145.805C95.4258 146.072 96.1354 146.205 96.9297 146.205C97.7174 146.205 98.4206 146.072 99.0391 145.805C99.6576 145.531 100.178 145.154 100.602 144.672C101.025 144.19 101.347 143.624 101.568 142.973C101.79 142.315 101.9 141.599 101.9 140.824V140.619C101.9 139.851 101.79 139.141 101.568 138.49C101.347 137.833 101.025 137.263 100.602 136.781C100.172 136.299 99.6478 135.922 99.0293 135.648C98.4108 135.375 97.7044 135.238 96.9102 135.238C96.1159 135.238 95.4095 135.375 94.791 135.648C94.179 135.922 93.6615 136.299 93.2383 136.781C92.8086 137.263 92.4831 137.833 92.2617 138.49C92.0404 139.141 91.9297 139.851 91.9297 140.619ZM94.6445 140.824V140.619C94.6445 140.189 94.6868 139.783 94.7715 139.398C94.8561 139.014 94.9896 138.676 95.1719 138.383C95.3542 138.09 95.5885 137.859 95.875 137.689C96.1615 137.52 96.5065 137.436 96.9102 137.436C97.3203 137.436 97.6686 137.52 97.9551 137.689C98.2415 137.859 98.4759 138.09 98.6582 138.383C98.834 138.676 98.9642 139.014 99.0488 139.398C99.1335 139.783 99.1758 140.189 99.1758 140.619V140.824C99.1758 141.267 99.1335 141.684 99.0488 142.074C98.9642 142.458 98.834 142.794 98.6582 143.08C98.4759 143.373 98.2415 143.604 97.9551 143.773C97.6686 143.943 97.3268 144.027 96.9297 144.027C96.5195 144.027 96.168 143.943 95.875 143.773C95.5885 143.604 95.3542 143.373 95.1719 143.08C94.9896 142.794 94.8561 142.458 94.7715 142.074C94.6868 141.684 94.6445 141.267 94.6445 140.824ZM125.846 140.824V140.619C125.846 139.981 125.787 139.382 125.67 138.822C125.559 138.262 125.387 137.758 125.152 137.309C125.003 137.029 124.83 136.771 124.635 136.537C124.439 136.296 124.221 136.091 123.98 135.922C123.681 135.701 123.339 135.531 122.955 135.414C122.577 135.297 122.161 135.238 121.705 135.238C121.373 135.238 121.064 135.274 120.777 135.346C120.497 135.411 120.237 135.512 119.996 135.648C119.827 135.74 119.667 135.85 119.518 135.98C119.368 136.104 119.228 136.241 119.098 136.391V131H116.383V146H118.824L118.951 144.877C119.062 145.02 119.179 145.154 119.303 145.277C119.426 145.395 119.56 145.502 119.703 145.6C119.97 145.795 120.27 145.941 120.602 146.039C120.94 146.143 121.314 146.195 121.725 146.195C122.174 146.195 122.584 146.137 122.955 146.02C123.333 145.909 123.671 145.746 123.971 145.531C124.303 145.303 124.589 145.017 124.83 144.672C125.077 144.327 125.276 143.943 125.426 143.52C125.562 143.135 125.667 142.719 125.738 142.27C125.81 141.814 125.846 141.332 125.846 140.824ZM123.131 140.619V140.824C123.131 141.098 123.118 141.361 123.092 141.615C123.072 141.869 123.036 142.104 122.984 142.318C122.919 142.611 122.822 142.875 122.691 143.109C122.568 143.337 122.405 143.523 122.203 143.666C122.06 143.77 121.891 143.852 121.695 143.91C121.5 143.969 121.282 143.998 121.041 143.998C120.761 143.998 120.51 143.965 120.289 143.9C120.074 143.835 119.885 143.741 119.723 143.617C119.586 143.52 119.465 143.406 119.361 143.275C119.264 143.139 119.176 142.989 119.098 142.826V138.617C119.156 138.493 119.221 138.38 119.293 138.275C119.365 138.165 119.443 138.067 119.527 137.982C119.703 137.807 119.915 137.673 120.162 137.582C120.41 137.491 120.696 137.445 121.021 137.445C121.262 137.445 121.477 137.475 121.666 137.533C121.855 137.585 122.024 137.667 122.174 137.777C122.402 137.953 122.571 138.148 122.682 138.363C122.799 138.572 122.893 138.809 122.965 139.076C123.023 139.304 123.066 139.548 123.092 139.809C123.118 140.069 123.131 140.339 123.131 140.619ZM133.463 146.195C134.485 146.195 135.37 145.997 136.119 145.6C136.868 145.202 137.415 144.76 137.76 144.271L136.402 142.807C136.09 143.21 135.683 143.513 135.182 143.715C134.68 143.917 134.163 144.018 133.629 144.018C133.251 144.018 132.903 143.959 132.584 143.842C132.265 143.725 131.982 143.559 131.734 143.344C131.493 143.135 131.301 142.904 131.158 142.65C131.015 142.39 130.898 142.048 130.807 141.625V141.596H137.975V140.443C137.975 139.669 137.867 138.962 137.652 138.324C137.438 137.68 137.125 137.13 136.715 136.674C136.298 136.218 135.79 135.867 135.191 135.619C134.599 135.365 133.922 135.238 133.16 135.238C132.424 135.238 131.744 135.372 131.119 135.639C130.494 135.906 129.954 136.28 129.498 136.762C129.042 137.243 128.688 137.82 128.434 138.49C128.18 139.154 128.053 139.89 128.053 140.697V141.088C128.053 141.798 128.18 142.465 128.434 143.09C128.694 143.708 129.062 144.245 129.537 144.701C130.012 145.163 130.582 145.528 131.246 145.795C131.91 146.062 132.649 146.195 133.463 146.195ZM133.141 137.436C133.486 137.436 133.788 137.491 134.049 137.602C134.316 137.706 134.54 137.849 134.723 138.031C134.905 138.22 135.048 138.441 135.152 138.695C135.257 138.949 135.309 139.219 135.309 139.506V139.721H130.855C130.921 139.376 131.018 139.063 131.148 138.783C131.279 138.503 131.441 138.262 131.637 138.061C131.826 137.859 132.047 137.706 132.301 137.602C132.555 137.491 132.835 137.436 133.141 137.436ZM157.037 144.027C156.601 144.027 156.24 143.939 155.953 143.764C155.673 143.588 155.452 143.354 155.289 143.061C155.12 142.774 155.003 142.442 154.938 142.064C154.872 141.68 154.84 141.283 154.84 140.873V140.58C154.84 140.176 154.872 139.786 154.938 139.408C155.009 139.031 155.13 138.695 155.299 138.402C155.462 138.109 155.683 137.875 155.963 137.699C156.243 137.523 156.598 137.436 157.027 137.436C157.32 137.436 157.59 137.488 157.838 137.592C158.085 137.689 158.297 137.823 158.473 137.992C158.648 138.161 158.782 138.363 158.873 138.598C158.964 138.832 159.003 139.079 158.99 139.34H161.549C161.562 138.715 161.458 138.152 161.236 137.65C161.015 137.143 160.706 136.71 160.309 136.352C159.905 136 159.426 135.727 158.873 135.531C158.32 135.336 157.717 135.238 157.066 135.238C156.253 135.238 155.536 135.378 154.918 135.658C154.306 135.938 153.792 136.319 153.375 136.801C152.958 137.283 152.646 137.849 152.438 138.5C152.229 139.145 152.125 139.838 152.125 140.58V140.873C152.125 141.615 152.229 142.312 152.438 142.963C152.652 143.607 152.968 144.171 153.385 144.652C153.795 145.134 154.309 145.515 154.928 145.795C155.546 146.068 156.266 146.205 157.086 146.205C157.691 146.205 158.264 146.111 158.805 145.922C159.352 145.727 159.83 145.46 160.24 145.121C160.65 144.783 160.973 144.379 161.207 143.91C161.448 143.441 161.562 142.934 161.549 142.387H158.99C159.003 142.634 158.958 142.859 158.854 143.061C158.756 143.262 158.616 143.435 158.434 143.578C158.251 143.721 158.04 143.832 157.799 143.91C157.558 143.988 157.304 144.027 157.037 144.027ZM164 140.619V140.824C164 141.599 164.111 142.315 164.332 142.973C164.553 143.624 164.879 144.19 165.309 144.672C165.732 145.154 166.253 145.531 166.871 145.805C167.496 146.072 168.206 146.205 169 146.205C169.788 146.205 170.491 146.072 171.109 145.805C171.728 145.531 172.249 145.154 172.672 144.672C173.095 144.19 173.417 143.624 173.639 142.973C173.86 142.315 173.971 141.599 173.971 140.824V140.619C173.971 139.851 173.86 139.141 173.639 138.49C173.417 137.833 173.095 137.263 172.672 136.781C172.242 136.299 171.718 135.922 171.1 135.648C170.481 135.375 169.775 135.238 168.98 135.238C168.186 135.238 167.48 135.375 166.861 135.648C166.249 135.922 165.732 136.299 165.309 136.781C164.879 137.263 164.553 137.833 164.332 138.49C164.111 139.141 164 139.851 164 140.619ZM166.715 140.824V140.619C166.715 140.189 166.757 139.783 166.842 139.398C166.926 139.014 167.06 138.676 167.242 138.383C167.424 138.09 167.659 137.859 167.945 137.689C168.232 137.52 168.577 137.436 168.98 137.436C169.391 137.436 169.739 137.52 170.025 137.689C170.312 137.859 170.546 138.09 170.729 138.383C170.904 138.676 171.035 139.014 171.119 139.398C171.204 139.783 171.246 140.189 171.246 140.619V140.824C171.246 141.267 171.204 141.684 171.119 142.074C171.035 142.458 170.904 142.794 170.729 143.08C170.546 143.373 170.312 143.604 170.025 143.773C169.739 143.943 169.397 144.027 169 144.027C168.59 144.027 168.238 143.943 167.945 143.773C167.659 143.604 167.424 143.373 167.242 143.08C167.06 142.794 166.926 142.458 166.842 142.074C166.757 141.684 166.715 141.267 166.715 140.824ZM176.383 146H179.107V138.49C179.199 138.347 179.299 138.217 179.41 138.1C179.521 137.982 179.645 137.882 179.781 137.797C179.951 137.68 180.143 137.592 180.357 137.533C180.579 137.475 180.82 137.445 181.08 137.445C181.393 137.445 181.673 137.478 181.92 137.543C182.167 137.602 182.379 137.709 182.555 137.865C182.73 138.021 182.864 138.236 182.955 138.51C183.053 138.777 183.102 139.118 183.102 139.535V146H185.816V139.496C185.816 138.728 185.725 138.077 185.543 137.543C185.367 137.003 185.12 136.56 184.801 136.215C184.475 135.876 184.091 135.629 183.648 135.473C183.206 135.316 182.717 135.238 182.184 135.238C181.767 135.238 181.373 135.297 181.002 135.414C180.631 135.531 180.289 135.701 179.977 135.922C179.794 136.052 179.622 136.199 179.459 136.361C179.296 136.524 179.146 136.703 179.01 136.898L178.844 135.434H176.383V146ZM193.375 132.846H190.66V135.434H188.248V137.436H190.66V142.24C190.66 142.937 190.751 143.536 190.934 144.037C191.116 144.532 191.376 144.939 191.715 145.258C192.047 145.583 192.447 145.824 192.916 145.98C193.391 146.13 193.919 146.205 194.498 146.205C194.798 146.205 195.1 146.189 195.406 146.156C195.719 146.13 196.018 146.091 196.305 146.039C196.591 145.987 196.861 145.922 197.115 145.844C197.369 145.759 197.59 145.661 197.779 145.551L197.516 143.686C197.392 143.718 197.242 143.751 197.066 143.783C196.897 143.816 196.715 143.845 196.52 143.871C196.318 143.904 196.106 143.93 195.885 143.949C195.67 143.969 195.458 143.979 195.25 143.979C194.964 143.979 194.703 143.946 194.469 143.881C194.241 143.816 194.046 143.705 193.883 143.549C193.72 143.399 193.593 143.197 193.502 142.943C193.417 142.683 193.375 142.361 193.375 141.977V137.436H197.32V135.434H193.375V132.846ZM201.129 135.434V137.65H204.137V143.793H201.129V146H209.742V143.793H206.881V135.434H201.129ZM203.941 132.729C203.941 132.937 203.977 133.132 204.049 133.314C204.127 133.49 204.234 133.64 204.371 133.764C204.508 133.894 204.671 133.995 204.859 134.066C205.055 134.138 205.27 134.174 205.504 134.174C205.986 134.174 206.367 134.04 206.646 133.773C206.933 133.5 207.076 133.152 207.076 132.729C207.076 132.305 206.933 131.96 206.646 131.693C206.367 131.42 205.986 131.283 205.504 131.283C205.27 131.283 205.055 131.319 204.859 131.391C204.671 131.462 204.508 131.56 204.371 131.684C204.234 131.814 204.127 131.97 204.049 132.152C203.977 132.328 203.941 132.52 203.941 132.729ZM212.418 146H215.143V138.49C215.234 138.347 215.335 138.217 215.445 138.1C215.556 137.982 215.68 137.882 215.816 137.797C215.986 137.68 216.178 137.592 216.393 137.533C216.614 137.475 216.855 137.445 217.115 137.445C217.428 137.445 217.708 137.478 217.955 137.543C218.202 137.602 218.414 137.709 218.59 137.865C218.766 138.021 218.899 138.236 218.99 138.51C219.088 138.777 219.137 139.118 219.137 139.535V146H221.852V139.496C221.852 138.728 221.76 138.077 221.578 137.543C221.402 137.003 221.155 136.56 220.836 136.215C220.51 135.876 220.126 135.629 219.684 135.473C219.241 135.316 218.753 135.238 218.219 135.238C217.802 135.238 217.408 135.297 217.037 135.414C216.666 135.531 216.324 135.701 216.012 135.922C215.829 136.052 215.657 136.199 215.494 136.361C215.331 136.524 215.182 136.703 215.045 136.898L214.879 135.434H212.418V146ZM231.324 146H233.785V135.434H231.061V142.846C230.976 143.015 230.875 143.168 230.758 143.305C230.641 143.441 230.507 143.559 230.357 143.656C230.182 143.767 229.977 143.852 229.742 143.91C229.514 143.969 229.257 143.998 228.971 143.998C228.652 143.998 228.382 143.959 228.16 143.881C227.939 143.803 227.76 143.673 227.623 143.49C227.486 143.314 227.385 143.08 227.32 142.787C227.262 142.494 227.232 142.133 227.232 141.703V135.434H224.518V141.684C224.518 142.484 224.605 143.171 224.781 143.744C224.964 144.311 225.217 144.776 225.543 145.141C225.868 145.512 226.259 145.782 226.715 145.951C227.171 146.12 227.672 146.205 228.219 146.205C228.818 146.205 229.368 146.055 229.869 145.756C230.377 145.456 230.81 145.043 231.168 144.516L231.324 146ZM241.568 146.195C242.59 146.195 243.476 145.997 244.225 145.6C244.973 145.202 245.52 144.76 245.865 144.271L244.508 142.807C244.195 143.21 243.788 143.513 243.287 143.715C242.786 143.917 242.268 144.018 241.734 144.018C241.357 144.018 241.008 143.959 240.689 143.842C240.37 143.725 240.087 143.559 239.84 143.344C239.599 143.135 239.407 142.904 239.264 142.65C239.12 142.39 239.003 142.048 238.912 141.625V141.596H246.08V140.443C246.08 139.669 245.973 138.962 245.758 138.324C245.543 137.68 245.23 137.13 244.82 136.674C244.404 136.218 243.896 135.867 243.297 135.619C242.704 135.365 242.027 135.238 241.266 135.238C240.53 135.238 239.85 135.372 239.225 135.639C238.6 135.906 238.059 136.28 237.604 136.762C237.148 137.243 236.793 137.82 236.539 138.49C236.285 139.154 236.158 139.89 236.158 140.697V141.088C236.158 141.798 236.285 142.465 236.539 143.09C236.799 143.708 237.167 144.245 237.643 144.701C238.118 145.163 238.688 145.528 239.352 145.795C240.016 146.062 240.755 146.195 241.568 146.195ZM241.246 137.436C241.591 137.436 241.894 137.491 242.154 137.602C242.421 137.706 242.646 137.849 242.828 138.031C243.01 138.22 243.154 138.441 243.258 138.695C243.362 138.949 243.414 139.219 243.414 139.506V139.721H238.961C239.026 139.376 239.124 139.063 239.254 138.783C239.384 138.503 239.547 138.262 239.742 138.061C239.931 137.859 240.152 137.706 240.406 137.602C240.66 137.491 240.94 137.436 241.246 137.436ZM248.17 140.639V140.844C248.17 141.612 248.264 142.325 248.453 142.982C248.642 143.633 248.915 144.197 249.273 144.672C249.625 145.147 250.055 145.521 250.562 145.795C251.077 146.062 251.656 146.195 252.301 146.195C252.893 146.195 253.414 146.081 253.863 145.854C254.312 145.626 254.703 145.307 255.035 144.896L255.172 146H257.623V131H254.898V136.381C254.573 136.016 254.199 135.736 253.775 135.541C253.359 135.339 252.874 135.238 252.32 135.238C251.663 135.238 251.077 135.368 250.562 135.629C250.055 135.889 249.622 136.257 249.264 136.732C248.906 137.208 248.632 137.777 248.443 138.441C248.261 139.105 248.17 139.838 248.17 140.639ZM250.885 140.844V140.639C250.885 140.196 250.924 139.783 251.002 139.398C251.08 139.008 251.204 138.666 251.373 138.373C251.542 138.087 251.76 137.862 252.027 137.699C252.301 137.53 252.63 137.445 253.014 137.445C253.476 137.445 253.86 137.546 254.166 137.748C254.472 137.943 254.716 138.22 254.898 138.578V142.855C254.716 143.207 254.469 143.484 254.156 143.686C253.85 143.887 253.463 143.988 252.994 143.988C252.61 143.988 252.285 143.907 252.018 143.744C251.751 143.581 251.533 143.357 251.363 143.07C251.194 142.79 251.07 142.462 250.992 142.084C250.921 141.7 250.885 141.286 250.885 140.844Z" fill="#E27246"/>
</svg>
